<svg xmlns="http://www.w3.org/2000/svg" width="295.708" height="32.618" viewBox="0 0 295.708 32.618">
  <g id="Group_3347" data-name="Group 3347" transform="translate(-16.511 -37.904)">
    <path id="Path_800" data-name="Path 800" d="M41.724,39.185v5.39H25.92A4.012,4.012,0,0,0,22.86,45.6a3.7,3.7,0,0,0-.959,2.626,4.517,4.517,0,0,0,.205,1.348,2.864,2.864,0,0,0,.731,1.187,3.559,3.559,0,0,0,1.393.822,7.028,7.028,0,0,0,2.238.3h7.217a14.136,14.136,0,0,1,5.161.8A8.42,8.42,0,0,1,42.02,54.76a6.906,6.906,0,0,1,1.6,2.923,12.843,12.843,0,0,1,.434,3.289A11.34,11.34,0,0,1,43.5,64.58a7.322,7.322,0,0,1-1.736,2.855,8.132,8.132,0,0,1-3.037,1.9,13.008,13.008,0,0,1-4.5.685H17.059v-5.39H34.416a4.277,4.277,0,0,0,3.22-1.073,3.83,3.83,0,0,0,1.028-2.764,4.666,4.666,0,0,0-.228-1.438,2.936,2.936,0,0,0-.777-1.233,3.972,3.972,0,0,0-1.484-.845,7.386,7.386,0,0,0-2.353-.32H26.65a13.965,13.965,0,0,1-5.07-.777A7.824,7.824,0,0,1,18.5,54.121a7.155,7.155,0,0,1-1.553-2.878,12.131,12.131,0,0,1-.434-3.2,11.416,11.416,0,0,1,.525-3.54,7.059,7.059,0,0,1,1.69-2.809,7.866,7.866,0,0,1,2.992-1.85,12.913,12.913,0,0,1,4.384-.662Z" transform="translate(0 -0.407)" fill="#fff"/>
    <path id="Path_801" data-name="Path 801" d="M90.747,39.185q6.759,0,10.346,3.837t3.585,11.647q0,7.765-3.585,11.556T90.747,70.016h-4.2q-6.76,0-10.345-3.791T72.614,54.669q0-7.811,3.586-11.647t10.345-3.837Zm-4.2,5.39q-4.477,0-6.509,2.375T78,54.669q0,5.3,2.01,7.627t6.531,2.33h4.2q4.429,0,6.463-2.353t2.033-7.65q0-5.3-2.01-7.673t-6.486-2.375Z" transform="translate(-23.902 -0.407)" fill="#fff"/>
    <path id="Path_802" data-name="Path 802" d="M144.623,39.185v20.6a4.961,4.961,0,0,0,1.21,3.585,5.227,5.227,0,0,0,3.905,1.256h5.481a5.171,5.171,0,0,0,3.837-1.256,4.9,4.9,0,0,0,1.233-3.585v-20.6h5.3V60.2q0,4.888-2.513,7.354t-7.491,2.467H149.1q-9.958,0-9.958-9.82V39.185Z" transform="translate(-52.246 -0.407)" fill="#fff"/>
    <path id="Path_803" data-name="Path 803" d="M203.1,69.609h-5.389V44.944a6.819,6.819,0,0,1,1.736-4.864q1.735-1.85,5.344-1.85a6.959,6.959,0,0,1,4.865,1.53,10.32,10.32,0,0,1,2.626,4.179l9,19.687a2.69,2.69,0,0,0,.731.913,1.913,1.913,0,0,0,1.233.366,1.822,1.822,0,0,0,1.347-.48,1.7,1.7,0,0,0,.48-1.256V38.778h5.435V63.4a6.831,6.831,0,0,1-1.759,4.91,7.015,7.015,0,0,1-5.321,1.85,9.223,9.223,0,0,1-2.809-.388,6.089,6.089,0,0,1-2.1-1.142,7.336,7.336,0,0,1-1.53-1.8,12.14,12.14,0,0,1-1.1-2.375l-9-19.686a1.994,1.994,0,0,0-1.919-1.325,1.888,1.888,0,0,0-1.393.479,1.761,1.761,0,0,0-.48,1.3Z" transform="translate(-77.2 0)" fill="#fff"/>
    <path id="Path_804" data-name="Path 804" d="M344.131,39.185a11.981,11.981,0,0,1,4.476.754,8.751,8.751,0,0,1,3.083,2.009,7.791,7.791,0,0,1,1.782,2.946,10.923,10.923,0,0,1,.571,3.517,11.926,11.926,0,0,1-.526,3.471,8.411,8.411,0,0,1-1.713,3.106,8.922,8.922,0,0,1-3.083,2.238,10.98,10.98,0,0,1-4.59.868h-9.592a.686.686,0,0,0-.777.777V70.016h-5.389v-12.2a5.154,5.154,0,0,1,1.142-3.746,5.08,5.08,0,0,1,3.7-1.142h11.1a4.807,4.807,0,0,0,1.964-.366,3.629,3.629,0,0,0,1.325-.959,4.053,4.053,0,0,0,.754-1.348,4.96,4.96,0,0,0,.251-1.576,4.335,4.335,0,0,0-1.028-2.9,4,4,0,0,0-3.22-1.21H328.327v-5.39Z" transform="translate(-132.848 -0.407)" fill="#fff"/>
    <path id="Path_805" data-name="Path 805" d="M385.352,39.185V59.328a7.116,7.116,0,0,0,.3,2.078,3.866,3.866,0,0,0,1.027,1.69,5.086,5.086,0,0,0,1.941,1.119,9.579,9.579,0,0,0,3.038.411h11.967v5.39H391.336a15.159,15.159,0,0,1-5.229-.8A9.3,9.3,0,0,1,382.566,67a8.415,8.415,0,0,1-1.987-3.357,14.052,14.052,0,0,1-.616-4.27V39.185Z" transform="translate(-154.847 -0.407)" fill="#fff"/>
    <path id="Path_806" data-name="Path 806" d="M430.943,69.609h-5.938L435.83,42.2a5.813,5.813,0,0,1,2.443-3.083,8.148,8.148,0,0,1,4.042-.891,8.042,8.042,0,0,1,4,.891,5.616,5.616,0,0,1,2.4,3.083l10.414,27.405h-5.984l-9.363-24.8a1.5,1.5,0,0,0-1.507-1.05,1.584,1.584,0,0,0-1.553,1.05Z" transform="translate(-174.037 0)" fill="#fff"/>
    <path id="Path_807" data-name="Path 807" d="M485.493,39.185l8.633,13.2,8.724-13.2h6.394L496.82,56.724V70.016h-5.435V56.724L478.961,39.185Z" transform="translate(-197.025 -0.407)" fill="#fff"/>
    <path id="Path_808" data-name="Path 808" d="M274.557,45.316a4.047,4.047,0,0,1,.113-1.293,1.7,1.7,0,0,1,.856-.888,2.1,2.1,0,0,1,1.453-.162,2.413,2.413,0,0,1,.759.323l18.023,11.612a1.449,1.449,0,0,1,.727,1.308,1.631,1.631,0,0,1-.743,1.276L277.48,69.234a2.154,2.154,0,0,1-1.986,0,1.686,1.686,0,0,1-.937-1.389Z" transform="translate(-109.935 -1.996)" fill="none" stroke="#d8006b" stroke-miterlimit="10" stroke-width="6" fill-rule="evenodd"/>
  </g>
</svg>
